<svg width="53" height="32" viewBox="0 0 53 32" fill="none" xmlns="http://www.w3.org/2000/svg">
<path d="M11.82 31.72C14.9451 31.7965 17.9733 30.6319 20.2418 28.4811C22.5104 26.3302 23.8345 23.3683 23.9244 20.2435C24.0143 17.1188 22.8627 14.0856 20.7216 11.8079C18.5806 9.53016 15.6244 8.19333 12.5 8.09C13.2199 5.01462 14.8017 2.20826 17.06 0C10.53 0 0 8.90999 0 19.9C0 23.0349 1.24533 26.0413 3.46201 28.258C5.67869 30.4747 8.68515 31.72 11.82 31.72Z" fill="#FF7F22"/>
<path d="M40.78 31.72C43.9008 31.7881 46.9218 30.619 49.1837 28.4678C51.4455 26.3166 52.7647 23.3581 52.8531 20.2378C52.9416 17.1176 51.7922 14.089 49.6559 11.8131C47.5195 9.53726 44.5696 8.19883 41.45 8.09C42.1699 5.01462 43.7517 2.20826 46.01 0C39.48 0 28.95 8.90999 28.95 19.9C28.9527 23.0358 30.2002 26.0422 32.4185 28.2586C34.6367 30.475 37.6442 31.72 40.78 31.72Z" fill="#FF7F22"/>
</svg>
